<?xml version="1.0" encoding="utf-8"?>
<!-- Generator: Adobe Illustrator 16.2.0, SVG Export Plug-In . SVG Version: 6.00 Build 0)  -->
<!DOCTYPE svg PUBLIC "-//W3C//DTD SVG 1.1//EN" "http://www.w3.org/Graphics/SVG/1.1/DTD/svg11.dtd">
<svg version="1.1" id="Layer_1" xmlns="http://www.w3.org/2000/svg" xmlns:xlink="http://www.w3.org/1999/xlink" x="0px" y="0px"
	 width="150px" height="150px" viewBox="0 0 150 150" enable-background="new 0 0 150 150" xml:space="preserve">
<path fill="#070707" d="M150.012,130.02c0,11.047-8.955,20-20,20H19.99c-11.046,0-20-8.953-20-20V20c0-11.046,8.954-20,20-20
	h110.021c11.045,0,20,8.954,20,20V130.02z"/>
<g>
	<path fill="#FFFFFF" d="M40.681,64.484c-11.244,0-20.359,9.114-20.359,20.359c0,11.244,9.115,20.357,20.359,20.357
		c11.244,0,20.359-9.112,20.359-20.356C61.04,73.598,51.925,64.484,40.681,64.484z M40.66,97.422
		c-6.912,0-12.515-5.604-12.515-12.516s5.604-12.515,12.515-12.515c6.912,0,12.515,5.603,12.515,12.515S47.572,97.422,40.66,97.422z
		"/>
	<path fill="#FFFFFF" d="M76.2,64.23c-11.245,0-20.359,9.116-20.359,20.359c0,11.244,9.115,20.356,20.359,20.356
		c11.243,0,20.358-9.112,20.358-20.356C96.559,73.346,87.443,64.23,76.2,64.23z M76.18,97.168c-6.912,0-12.515-5.604-12.515-12.516
		s5.603-12.515,12.515-12.515c6.912,0,12.516,5.603,12.516,12.515S83.092,97.168,76.18,97.168z"/>
	<path fill="#FFFFFF" d="M28.947,88.492c0,2.311-1.875,4.186-4.187,4.186l0,0c-2.312,0-4.186-1.875-4.186-4.186V52.037
		c0-2.312,1.874-4.186,4.186-4.186l0,0c2.312,0,4.187,1.874,4.187,4.186V88.492z"/>
	<path fill="#FFFFFF" d="M101.932,103.217c-1.396,1.842-4.021,2.205-5.863,0.809l0,0c-1.844-1.395-2.207-4.02-0.812-5.862
		l25.31-31.812c1.396-1.844,4.021-2.206,5.865-0.811l0,0c1.842,1.396,2.205,4.021,0.81,5.864L101.932,103.217z"/>
	<path fill="#FFFFFF" d="M101.678,66.35c-1.396-1.843-4.021-2.205-5.863-0.81l0,0c-1.844,1.396-2.207,4.021-0.812,5.864
		l25.563,31.105c1.396,1.843,4.021,2.205,5.865,0.812l0,0c1.842-1.396,2.205-4.021,0.81-5.865L101.678,66.35z"/>
</g>
</svg>
