<?xml version="1.0" encoding="utf-8"?>
<!-- Generator: Adobe Illustrator 16.2.0, SVG Export Plug-In . SVG Version: 6.00 Build 0)  -->
<!DOCTYPE svg PUBLIC "-//W3C//DTD SVG 1.1//EN" "http://www.w3.org/Graphics/SVG/1.1/DTD/svg11.dtd">
<svg version="1.1"
	 id="Layer_1" xmlns:dc="http://purl.org/dc/elements/1.1/" xmlns:cc="http://creativecommons.org/ns#" xmlns:rdf="http://www.w3.org/1999/02/22-rdf-syntax-ns#" xmlns:svg="http://www.w3.org/2000/svg" xmlns:sodipodi="http://sodipodi.sourceforge.net/DTD/sodipodi-0.dtd" xmlns:inkscape="http://www.inkscape.org/namespaces/inkscape"
	 xmlns="http://www.w3.org/2000/svg" xmlns:xlink="http://www.w3.org/1999/xlink" x="0px" y="0px" width="12px" height="13px"
	 viewBox="0 0 12 13" enable-background="new 0 0 12 13" xml:space="preserve">
<g transform="translate(6618.4674,-1317.4787)">
	<path fill="#0F9ED6" d="M-6615.246,1327.656v-1.399h-1.398h-1.399v-4.201v-4.201h4.201h4.203v1.399v1.397h1.397h1.397v4.201v4.202
		h-4.201h-4.202L-6615.246,1327.656L-6615.246,1327.656z M-6607.281,1324.852v-3.763h-3.765h-3.766l0.004,3.763l0.005,3.766h3.76
		h3.761L-6607.281,1324.852L-6607.281,1324.852z M-6615.246,1323.235v-2.584h2.584h2.583v-1.176v-1.177l-3.757,0.003l-3.757,0.003
		l-0.003,3.757l-0.003,3.758h1.177h1.176V1323.235z"/>
</g>
</svg>
