<?xml version="1.0" encoding="utf-8"?>
<!-- Generator: Adobe Illustrator 16.2.0, SVG Export Plug-In . SVG Version: 6.00 Build 0)  -->
<!DOCTYPE svg PUBLIC "-//W3C//DTD SVG 1.1//EN" "http://www.w3.org/Graphics/SVG/1.1/DTD/svg11.dtd">
<svg version="1.1" id="Layer_1" xmlns="http://www.w3.org/2000/svg" xmlns:xlink="http://www.w3.org/1999/xlink" x="0px" y="0px"
	 width="249px" height="332px" viewBox="0 0 249 332" enable-background="new 0 0 249 332" xml:space="preserve">
<g>
	<path fill="#149ED9" d="M249.555,78.205c0-2.957-1.108-5.914-3.326-8.131L184.137,3.545c-2.219-2.587-5.545-3.696-8.871-3.696
		H20.034C9.315-0.15,0.445,8.72,0.445,19.438v293.093c0,10.719,8.871,19.589,19.589,19.589h210.302
		c10.719,0,19.589-8.87,19.589-19.589L249.555,78.205z M95.063,255.982c-3.327,2.588-9.979,6.652-19.219,6.652
		c-17.741,0-29.198-12.196-29.198-28.828c0-16.263,11.827-28.459,29.198-28.459c8.5,0,14.415,2.957,17.741,5.174
		c2.218,1.479,2.218,3.696,1.109,5.914l-1.848,3.326c-1.479,2.587-3.326,2.587-5.914,1.109c-2.587-1.479-6.283-2.957-10.349-2.957
		c-11.088,0-15.523,7.762-15.523,15.893s4.805,16.632,15.523,16.632c4.805,0,8.87-2.218,11.458-4.065
		c2.218-1.479,4.435-1.479,5.914,0.738l2.218,2.957C97.28,252.287,96.91,254.504,95.063,255.982z M125.739,262.635
		c-7.762,0-14.784-3.326-17.741-5.543c-1.479-1.479-2.957-2.957-0.739-5.914l2.587-3.326c1.479-2.218,3.327-2.588,5.914-1.109
		c1.848,1.109,5.175,3.326,9.979,3.326c4.065,0,5.913-1.848,5.913-3.695c0-7.762-24.393-6.653-24.393-24.024
		c0-10.349,8.5-17.001,19.958-17.001c6.283,0,12.196,2.217,15.153,4.064c2.218,1.479,2.588,3.697,1.479,5.914l-1.848,3.696
		c-1.479,2.956-3.696,2.587-5.914,1.479c-2.587-1.108-5.174-2.587-8.87-2.587c-4.436,0-5.914,1.848-5.914,3.695
		c0,8.131,24.393,6.283,24.393,23.654C144.959,254.504,138.306,262.635,125.739,262.635z M203.725,210.891l-16.632,47.31
		c-0.739,2.218-2.587,3.326-4.805,3.326h-6.653c-2.587,0-4.064-1.108-4.805-3.326l-16.632-47.31
		c-1.108-2.956,0.37-4.805,3.327-4.805h5.913c2.587,0,4.065,1.109,4.805,3.696l8.87,28.09c1.109,3.326,2.218,8.87,2.218,8.87l0,0
		c0,0,1.108-5.544,2.218-8.87l8.87-28.09c0.739-2.587,2.218-3.696,4.806-3.696h5.543
		C203.355,206.086,204.834,207.935,203.725,210.891z M232.554,81.901h-40.656c-10.718,0-19.589-8.871-19.589-19.589V18.699
		c0-1.109,1.479-1.479,2.218-0.739l59.136,61.723C234.032,80.422,233.662,81.901,232.554,81.901z"/>
</g>
</svg>
