<?xml version="1.0" encoding="utf-8"?>
<!-- Generator: Adobe Illustrator 16.2.0, SVG Export Plug-In . SVG Version: 6.00 Build 0)  -->
<!DOCTYPE svg PUBLIC "-//W3C//DTD SVG 1.1//EN" "http://www.w3.org/Graphics/SVG/1.1/DTD/svg11.dtd">
<svg version="1.1" id="Layer_1" xmlns="http://www.w3.org/2000/svg" xmlns:xlink="http://www.w3.org/1999/xlink" x="0px" y="0px"
	 width="12px" height="13px" viewBox="0 0 12 13" enable-background="new 0 0 12 13" xml:space="preserve">
<path fill="#FA5E86" d="M1.347,3.665c0,0.045,0,0.083,0,0.121c0,0.397,0,0.796,0,1.195c0,2.19,0,4.38,0,6.569
	c-0.019,0.769,0.589,1.403,1.356,1.423c0.011,0,0.021,0,0.032,0c2.17,0,4.34,0,6.511,0c0.117,0,0.232-0.015,0.346-0.043
	c0.637-0.148,1.08-0.729,1.061-1.385c0-2.577,0-5.157,0-7.736c0-0.047,0-0.094,0-0.15H1.347V3.665z M3.666,11.583
	c-0.259,0-0.47-0.209-0.471-0.468c0-0.012,0-0.021,0.001-0.034c0-0.923,0-1.845,0-2.767l0,0c0-0.934,0-1.865,0-2.796
	C3.193,5.258,3.401,5.044,3.661,5.04c0.212-0.003,0.401,0.137,0.46,0.342c0.015,0.056,0.021,0.114,0.02,0.172
	c0,1.844,0,3.69,0,5.535c0.014,0.259-0.184,0.479-0.442,0.494C3.688,11.583,3.677,11.583,3.666,11.583z M6.001,11.583
	c-0.259,0-0.47-0.209-0.471-0.468c0-0.012,0-0.021,0.001-0.034c0-0.923,0-1.845,0-2.767l0,0c0-0.934,0-1.865,0-2.796
	c-0.004-0.26,0.203-0.474,0.462-0.479C6.208,5.035,6.396,5.175,6.455,5.38c0.015,0.056,0.021,0.115,0.02,0.172
	c0,1.845,0,3.689,0,5.536c0.015,0.258-0.182,0.479-0.439,0.494C6.023,11.583,6.012,11.583,6.001,11.583z M8.336,11.583
	c-0.26,0-0.469-0.209-0.469-0.47c0-0.01,0-0.022,0-0.032c0-0.929,0-1.854,0-2.784l0,0c0-0.926,0-1.854,0-2.782
	c0-0.26,0.211-0.471,0.471-0.471c0.211,0,0.395,0.139,0.453,0.341C8.805,5.442,8.813,5.5,8.811,5.558c0,1.844,0,3.689,0,5.536
	c0.013,0.258-0.188,0.479-0.444,0.489c-0.015,0-0.025,0-0.041,0H8.336z M9.541,1.038H8.02c0,0,0-0.008,0-0.011
	C8.021,0.461,7.564,0.002,7.001,0C7,0,7,0,6.999,0H5.003C4.439,0,3.981,0.458,3.981,1.022l0,0c0,0,0,0.008,0,0.012h-1.52
	c-0.875,0-1.586,0.71-1.586,1.586l0,0l0,0c0,0.113,0.013,0.226,0.037,0.336h10.181c0.021-0.11,0.033-0.223,0.033-0.336l0,0
	C11.125,1.746,10.414,1.038,9.541,1.038z"/>
</svg>
