<?xml version="1.0" encoding="utf-8"?>
<!-- Generator: Adobe Illustrator 16.2.0, SVG Export Plug-In . SVG Version: 6.00 Build 0)  -->
<!DOCTYPE svg PUBLIC "-//W3C//DTD SVG 1.1//EN" "http://www.w3.org/Graphics/SVG/1.1/DTD/svg11.dtd">
<svg version="1.1"
	 id="Layer_1" xmlns:dc="http://purl.org/dc/elements/1.1/" xmlns:cc="http://creativecommons.org/ns#" xmlns:rdf="http://www.w3.org/1999/02/22-rdf-syntax-ns#" xmlns:svg="http://www.w3.org/2000/svg" xmlns:sodipodi="http://sodipodi.sourceforge.net/DTD/sodipodi-0.dtd" xmlns:inkscape="http://www.inkscape.org/namespaces/inkscape"
	 xmlns="http://www.w3.org/2000/svg" xmlns:xlink="http://www.w3.org/1999/xlink" x="0px" y="0px" width="12px" height="13px"
	 viewBox="0 0 12 13" enable-background="new 0 0 12 13" xml:space="preserve">
<g transform="translate(0,-952.36218)">
	<path fill="#0F9ED6" d="M10.187,952.364c-0.061,0.007-0.116,0.033-0.159,0.076l-6.088,6.087c-0.044,0.043-0.073,0.102-0.08,0.164
		l-0.189,1.711c-0.018,0.147,0.088,0.281,0.236,0.299c0.021,0.003,0.042,0.003,0.062,0l1.711-0.194
		c0.061-0.005,0.117-0.033,0.16-0.075l6.088-6.087c0.105-0.104,0.105-0.275,0.002-0.38c-0.002,0-0.002-0.001-0.002-0.002
		l-1.521-1.522C10.349,952.383,10.268,952.355,10.187,952.364z M10.217,953.012l1.143,1.144l-0.377,0.378l-1.145-1.144
		L10.217,953.012z M0.681,953.709c-0.138,0.013-0.244,0.13-0.244,0.269v9.687c0,0.149,0.121,0.268,0.269,0.268h9.687
		c0.146,0,0.269-0.118,0.269-0.268v-6.592c0.002-0.148-0.116-0.271-0.266-0.273s-0.271,0.117-0.273,0.265c0,0.002,0,0.005,0,0.008
		v6.322H0.976v-9.147h6.323c0.148,0.002,0.27-0.116,0.272-0.265c0.003-0.148-0.116-0.271-0.266-0.273c-0.002,0-0.005,0-0.007,0
		H0.707C0.698,953.709,0.69,953.709,0.681,953.709z M9.454,953.772l1.145,1.143l-4.852,4.852l-1.143-1.144L9.454,953.772z
		 M4.352,959.132l0.883,0.883l-0.992,0.108L4.352,959.132z"/>
</g>
</svg>
