<?xml version="1.0" encoding="utf-8"?>
<!-- Generator: Adobe Illustrator 16.2.0, SVG Export Plug-In . SVG Version: 6.00 Build 0)  -->
<!DOCTYPE svg PUBLIC "-//W3C//DTD SVG 1.1//EN" "http://www.w3.org/Graphics/SVG/1.1/DTD/svg11.dtd">
<svg version="1.1" id="Layer_1" xmlns="http://www.w3.org/2000/svg" xmlns:xlink="http://www.w3.org/1999/xlink" x="0px" y="0px"
	 width="12px" height="13px" viewBox="0 0 12 13" enable-background="new 0 0 12 13" xml:space="preserve">
<path d="M10.456,6.775v-4.15c0-0.093-0.042-0.188-0.108-0.253L8.145,0.225C8.078,0.159,7.98,0.119,7.885,0.119H0.539
	c-0.203,0-0.368,0.16-0.368,0.358v12.175c0,0.199,0.165,0.357,0.368,0.357h9.55c0.201,0,0.367-0.158,0.367-0.357V9.936l1.36-1.326
	c0.144-0.141,0.144-0.366,0-0.506L10.456,6.775z M8.984,10.355V9.43c0-0.197-0.164-0.357-0.365-0.357H5.313V7.641h3.306
	c0.201,0,0.365-0.16,0.365-0.358V6.355l2.054,2L8.984,10.355z M8.252,1.342l0.949,0.926H8.252V1.342z M9.721,12.295H0.906V0.835
	h6.611v1.79c0,0.198,0.164,0.359,0.367,0.359h1.836v3.075L8.878,5.238C8.773,5.136,8.616,5.104,8.479,5.16
	C8.342,5.216,8.252,5.346,8.252,5.491v1.433H4.946c-0.204,0-0.368,0.16-0.368,0.358V9.43c0,0.199,0.164,0.357,0.368,0.357h3.306
	v1.436c0,0.145,0.09,0.273,0.227,0.33c0.136,0.055,0.297,0.023,0.399-0.078l0.843-0.82V12.295z"/>
</svg>
