<?xml version="1.0" encoding="utf-8"?>
<!-- Generator: Adobe Illustrator 16.2.0, SVG Export Plug-In . SVG Version: 6.00 Build 0)  -->
<!DOCTYPE svg PUBLIC "-//W3C//DTD SVG 1.1//EN" "http://www.w3.org/Graphics/SVG/1.1/DTD/svg11.dtd">
<svg version="1.1" id="Layer_1" xmlns="http://www.w3.org/2000/svg" xmlns:xlink="http://www.w3.org/1999/xlink" x="0px" y="0px"
	 width="12px" height="13px" viewBox="0 0 12 13" enable-background="new 0 0 12 13" xml:space="preserve">
<g transform="translate(0,-952.36218)">
	<path d="M3.044,952.363c-0.106,0.011-0.206,0.059-0.28,0.135l-2.628,2.627C0.049,955.212,0,955.33,0,955.453v7.881
		c0,0.256,0.208,0.463,0.464,0.463h5.565c0.257,0.005,0.467-0.2,0.47-0.456c0.004-0.256-0.2-0.468-0.457-0.472
		c-0.004,0-0.008,0-0.013,0H0.928v-6.953h2.164c0.256,0,0.464-0.207,0.464-0.463v-2.163h4.792v6.953
		c-0.002,0.257,0.202,0.466,0.459,0.47c0.256,0.004,0.467-0.2,0.471-0.457c0-0.004,0-0.008,0-0.013v-7.417
		c0-0.256-0.207-0.463-0.465-0.463H3.092C3.076,952.362,3.06,952.362,3.044,952.363z M2.628,953.942v1.047H1.58L2.628,953.942z
		 M9.088,961.013c-0.105,0.008-0.203,0.053-0.279,0.123l-1.855,1.701c-0.189,0.174-0.2,0.467-0.026,0.655
		c0.009,0.008,0.017,0.019,0.026,0.024l1.855,1.699c0.18,0.184,0.474,0.186,0.655,0.006c0.183-0.18,0.187-0.474,0.007-0.654
		c-0.013-0.012-0.022-0.021-0.035-0.031l-0.977-0.895h2.827c0.257,0.004,0.467-0.2,0.471-0.457c0.003-0.256-0.2-0.465-0.457-0.469
		c-0.005,0-0.01,0-0.014,0H8.459l0.977-0.898c0.19-0.172,0.207-0.465,0.035-0.655C9.373,961.056,9.23,960.999,9.088,961.013z"/>
</g>
</svg>
