<?xml version="1.0" encoding="utf-8"?>
<!-- Generator: Adobe Illustrator 16.2.0, SVG Export Plug-In . SVG Version: 6.00 Build 0)  -->
<!DOCTYPE svg PUBLIC "-//W3C//DTD SVG 1.1//EN" "http://www.w3.org/Graphics/SVG/1.1/DTD/svg11.dtd">
<svg version="1.1" id="Layer_1" xmlns="http://www.w3.org/2000/svg" xmlns:xlink="http://www.w3.org/1999/xlink" x="0px" y="0px"
	 width="12px" height="13px" viewBox="0 0 12 13" enable-background="new 0 0 12 13" xml:space="preserve">
<path fill="#FD8E3D" d="M10.445,4.646v7.327H1.553V4.646H10.445 M11.229,3.862H0.769v8.894h10.463V3.862l0,0H11.229z M2.622,6.12
	h1.447v1.448H2.622V6.12z M5.275,7.568h1.448V6.12H5.275V7.568z M7.93,6.12v1.448h1.447V6.12H7.93z M2.622,10.223h1.447V8.775H2.622
	V10.223z M5.275,10.223h1.448V8.775H5.275V10.223z M7.93,8.775v1.445h1.447V8.775H7.93z M9.396,1.507v0.784
	c0,0.289-0.232,0.524-0.521,0.524H7.827c-0.289,0-0.522-0.235-0.522-0.524V1.507H4.691v0.784c0,0.289-0.235,0.524-0.523,0.524l0,0
	H3.121c-0.289,0-0.523-0.235-0.523-0.524l0,0V1.507H1.029c-0.145,0.001-0.262,0.12-0.261,0.266c0,0.001,0,0.003,0,0.005v1.038
	c0.001,0.144,0.117,0.259,0.26,0.26h9.941c0.146-0.001,0.26-0.116,0.26-0.26V1.777c0-0.144-0.114-0.259-0.26-0.261H9.396V1.507z
	 M4.503,1.989C4.497,2.274,4.264,2.501,3.979,2.501H3.345c-0.289,0-0.524-0.234-0.524-0.523l0,0V0.854
	c0-0.29,0.235-0.524,0.524-0.524l0,0h0.642c0.289,0,0.523,0.234,0.523,0.524l0,0v1.124L4.503,1.989z M9.208,0.865
	C9.215,0.576,8.986,0.336,8.695,0.33c-0.002,0-0.008,0-0.012,0H8.042c-0.289,0-0.522,0.234-0.522,0.524v1.124
	c0,0.289,0.233,0.523,0.522,0.523h0.642c0.291,0,0.524-0.234,0.524-0.523V0.854V0.865z"/>
</svg>
